<svg width="167" height="49" viewBox="0 0 167 49" fill="none" xmlns="http://www.w3.org/2000/svg">
<path d="M13.168 36.336C10.704 36.336 8.496 35.936 6.544 35.136C4.592 34.336 3.024 33.152 1.84 31.584C0.688 30.016 0.0800002 28.128 0.0160002 25.92H8.752C8.88 27.168 9.312 28.128 10.048 28.8C10.784 29.44 11.744 29.76 12.928 29.76C14.144 29.76 15.104 29.488 15.808 28.944C16.512 28.368 16.864 27.584 16.864 26.592C16.864 25.76 16.576 25.072 16 24.528C15.456 23.984 14.768 23.536 13.936 23.184C13.136 22.832 11.984 22.432 10.48 21.984C8.304 21.312 6.528 20.64 5.152 19.968C3.776 19.296 2.592 18.304 1.6 16.992C0.608 15.68 0.112 13.968 0.112 11.856C0.112 8.72 1.248 6.272 3.52 4.512C5.792 2.72 8.752 1.824 12.4 1.824C16.112 1.824 19.104 2.72 21.376 4.512C23.648 6.272 24.864 8.736 25.024 11.904H16.144C16.08 10.816 15.68 9.968 14.944 9.36C14.208 8.72 13.264 8.4 12.112 8.4C11.12 8.4 10.32 8.672 9.712 9.216C9.104 9.728 8.8 10.48 8.8 11.472C8.8 12.56 9.312 13.408 10.336 14.016C11.36 14.624 12.96 15.28 15.136 15.984C17.312 16.72 19.072 17.424 20.416 18.096C21.792 18.768 22.976 19.744 23.968 21.024C24.96 22.304 25.456 23.952 25.456 25.968C25.456 27.888 24.96 29.632 23.968 31.2C23.008 32.768 21.6 34.016 19.744 34.944C17.888 35.872 15.696 36.336 13.168 36.336ZM55.7552 22.176C55.7552 22.944 55.7073 23.744 55.6113 24.576H37.0353C37.1633 26.24 37.6913 27.52 38.6193 28.416C39.5793 29.28 40.7473 29.712 42.1233 29.712C44.1713 29.712 45.5953 28.848 46.3953 27.12H55.1313C54.6833 28.88 53.8673 30.464 52.6833 31.872C51.5313 33.28 50.0753 34.384 48.3153 35.184C46.5553 35.984 44.5873 36.384 42.4113 36.384C39.7873 36.384 37.4513 35.824 35.4033 34.704C33.3553 33.584 31.7553 31.984 30.6033 29.904C29.4513 27.824 28.8753 25.392 28.8753 22.608C28.8753 19.824 29.4353 17.392 30.5553 15.312C31.7073 13.232 33.3073 11.632 35.3553 10.512C37.4033 9.392 39.7553 8.832 42.4113 8.832C45.0033 8.832 47.3073 9.376 49.3233 10.464C51.3393 11.552 52.9073 13.104 54.0273 15.12C55.1793 17.136 55.7552 19.488 55.7552 22.176ZM47.3553 20.016C47.3553 18.608 46.8753 17.488 45.9153 16.656C44.9553 15.824 43.7553 15.408 42.3153 15.408C40.9393 15.408 39.7713 15.808 38.8113 16.608C37.8833 17.408 37.3073 18.544 37.0833 20.016H47.3553ZM58.4534 22.56C58.4534 19.808 58.9654 17.392 59.9894 15.312C61.0454 13.232 62.4694 11.632 64.2614 10.512C66.0534 9.392 68.0534 8.832 70.2614 8.832C72.0214 8.832 73.6214 9.2 75.0614 9.936C76.5334 10.672 77.6854 11.664 78.5174 12.912V0.48H86.7254V36H78.5174V32.16C77.7494 33.44 76.6454 34.464 75.2054 35.232C73.7974 36 72.1494 36.384 70.2614 36.384C68.0534 36.384 66.0534 35.824 64.2614 34.704C62.4694 33.552 61.0454 31.936 59.9894 29.856C58.9654 27.744 58.4534 25.312 58.4534 22.56ZM78.5174 22.608C78.5174 20.56 77.9414 18.944 76.7894 17.76C75.6694 16.576 74.2934 15.984 72.6614 15.984C71.0294 15.984 69.6374 16.576 68.4854 17.76C67.3654 18.912 66.8054 20.512 66.8054 22.56C66.8054 24.608 67.3654 26.24 68.4854 27.456C69.6374 28.64 71.0294 29.232 72.6614 29.232C74.2934 29.232 75.6694 28.64 76.7894 27.456C77.9414 26.272 78.5174 24.656 78.5174 22.608ZM91.0315 22.56C91.0315 19.808 91.5435 17.392 92.5675 15.312C93.6235 13.232 95.0475 11.632 96.8395 10.512C98.6315 9.392 100.632 8.832 102.84 8.832C104.728 8.832 106.376 9.216 107.784 9.984C109.224 10.752 110.328 11.76 111.096 13.008V9.216H119.304V36H111.096V32.208C110.296 33.456 109.176 34.464 107.736 35.232C106.328 36 104.68 36.384 102.792 36.384C100.616 36.384 98.6315 35.824 96.8395 34.704C95.0475 33.552 93.6235 31.936 92.5675 29.856C91.5435 27.744 91.0315 25.312 91.0315 22.56ZM111.096 22.608C111.096 20.56 110.52 18.944 109.368 17.76C108.248 16.576 106.872 15.984 105.24 15.984C103.608 15.984 102.216 16.576 101.064 17.76C99.9435 18.912 99.3835 20.512 99.3835 22.56C99.3835 24.608 99.9435 26.24 101.064 27.456C102.216 28.64 103.608 29.232 105.24 29.232C106.872 29.232 108.248 28.64 109.368 27.456C110.52 26.272 111.096 24.656 111.096 22.608ZM133.45 13.008C134.25 11.76 135.354 10.752 136.762 9.984C138.17 9.216 139.818 8.832 141.706 8.832C143.914 8.832 145.914 9.392 147.706 10.512C149.498 11.632 150.906 13.232 151.93 15.312C152.986 17.392 153.514 19.808 153.514 22.56C153.514 25.312 152.986 27.744 151.93 29.856C150.906 31.936 149.498 33.552 147.706 34.704C145.914 35.824 143.914 36.384 141.706 36.384C139.85 36.384 138.202 36 136.762 35.232C135.354 34.464 134.25 33.472 133.45 32.256V48.768H125.242V9.216H133.45V13.008ZM145.162 22.56C145.162 20.512 144.586 18.912 143.434 17.76C142.314 16.576 140.922 15.984 139.258 15.984C137.626 15.984 136.234 16.576 135.082 17.76C133.962 18.944 133.402 20.56 133.402 22.608C133.402 24.656 133.962 26.272 135.082 27.456C136.234 28.64 137.626 29.232 139.258 29.232C140.89 29.232 142.282 28.64 143.434 27.456C144.586 26.24 145.162 24.608 145.162 22.56Z" fill="#333333"/>
<path d="M161.66 36.384C160.22 36.384 159.036 35.968 158.108 35.136C157.212 34.272 156.764 33.216 156.764 31.968C156.764 30.688 157.212 29.616 158.108 28.752C159.036 27.888 160.22 27.456 161.66 27.456C163.068 27.456 164.22 27.888 165.116 28.752C166.044 29.616 166.508 30.688 166.508 31.968C166.508 33.216 166.044 34.272 165.116 35.136C164.22 35.968 163.068 36.384 161.66 36.384Z" fill="#00B074"/>
</svg>
